<svg preserveAspectRatio="none" overflow="visible" style="display: block;" width="16" height="16" viewBox="0 0 16 16" fill="none" xmlns="http://www.w3.org/2000/svg">
<g id="Left icon">
<path id="Outlined" d="M5.33301 4.66699H3.33301V13.333H12.667V4.66699H10.667V3.33301H12.667C13.0204 3.33309 13.3594 3.47376 13.6094 3.72363C13.8594 3.97368 14 4.31337 14 4.66699V13.333C14 13.6866 13.8594 14.0263 13.6094 14.2764C13.3594 14.5262 13.0204 14.6669 12.667 14.667H3.33301C2.97958 14.6669 2.64058 14.5262 2.39062 14.2764C2.14058 14.0263 2 13.6866 2 13.333V4.66699C2 4.31337 2.14058 3.97368 2.39062 3.72363C2.64058 3.47376 2.97958 3.33309 3.33301 3.33301H5.33301V4.66699ZM8 1.33301C8.17681 1.33301 8.34666 1.4033 8.47168 1.52832C8.5967 1.65334 8.66699 1.82319 8.66699 2V9.21875L9.88574 8C9.94758 7.93817 10.0208 7.88897 10.1016 7.85547C10.1824 7.82197 10.269 7.80476 10.3564 7.80469C10.444 7.80466 10.5314 7.82199 10.6123 7.85547C10.6929 7.88887 10.7664 7.93743 10.8281 7.99902C10.89 8.06085 10.9391 8.13504 10.9727 8.21582C11.0062 8.29669 11.0244 8.38414 11.0244 8.47168C11.0244 8.55901 11.007 8.64586 10.9736 8.72656C10.9402 8.80725 10.8908 8.88056 10.8291 8.94238L8.58887 11.1826C8.43263 11.3386 8.21981 11.4258 7.99902 11.4258C7.77862 11.4256 7.56719 11.3383 7.41113 11.1826L5.1709 8.94238C5.10921 8.88056 5.05978 8.80725 5.02637 8.72656C4.99299 8.64586 4.97563 8.55901 4.97559 8.47168C4.97562 8.38414 4.99382 8.29669 5.02734 8.21582C5.06088 8.13504 5.11001 8.06085 5.17188 7.99902C5.23363 7.93743 5.30712 7.88887 5.3877 7.85547C5.46861 7.82199 5.55599 7.80466 5.64355 7.80469C5.73101 7.80476 5.81765 7.82197 5.89844 7.85547C5.97921 7.88897 6.05242 7.93817 6.11426 8L7.33301 9.21875V2C7.33301 1.82319 7.4033 1.65334 7.52832 1.52832C7.65334 1.4033 7.82319 1.33301 8 1.33301Z" fill="#040404" fill-opacity="0.53"/>
</g>
</svg>
