<svg preserveAspectRatio="none" overflow="visible" style="display: block;" width="16" height="16" viewBox="0 0 16 16" fill="none" xmlns="http://www.w3.org/2000/svg">
<g id="Left icon">
<path id="Outlined" d="M6.99967 1.33301C7.38629 1.33301 7.76652 1.37163 8.13248 1.44629C8.30561 1.48145 8.45768 1.58424 8.55533 1.73145C8.65293 1.87877 8.68808 2.05923 8.65299 2.23242C8.61781 2.4056 8.51512 2.55763 8.36783 2.65527C8.22044 2.75291 8.04012 2.78811 7.86686 2.75293C7.02728 2.58172 6.15522 2.66332 5.36197 2.9873C4.56886 3.31131 3.88942 3.86332 3.40982 4.57324C2.93017 5.28337 2.67199 6.12061 2.66764 6.97754C2.66337 7.8342 2.91322 8.67292 3.38541 9.3877C3.85785 10.1027 4.53193 10.6621 5.32193 10.9941C6.11185 11.3261 6.98264 11.4166 7.82389 11.2539C8.66522 11.0911 9.44033 10.6818 10.0495 10.0791C10.6583 9.47643 11.0751 8.70653 11.2467 7.86719C11.2642 7.78154 11.2985 7.70042 11.3473 7.62793C11.3963 7.55534 11.4589 7.49268 11.5319 7.44434C11.6048 7.39609 11.6863 7.36244 11.7721 7.3457C11.8579 7.32901 11.9463 7.32936 12.0319 7.34668C12.1176 7.36409 12.1996 7.3984 12.2721 7.44727C12.3446 7.49611 12.4074 7.55901 12.4557 7.63184C12.5038 7.7046 12.5376 7.78645 12.5544 7.87207C12.5711 7.95798 12.5708 8.04704 12.5534 8.13281C12.3917 8.92807 12.0601 9.67941 11.5817 10.335L11.4499 10.5078L13.8854 12.9424C14.0061 13.062 14.0768 13.2237 14.0827 13.3936C14.0884 13.5632 14.0287 13.729 13.9167 13.8564C13.8042 13.984 13.6465 14.0644 13.4772 14.0801C13.3079 14.0957 13.1384 14.0462 13.0046 13.9414L12.9421 13.8857L10.5085 11.4502C9.79876 12.0095 8.9649 12.3917 8.07779 12.5635C7.19074 12.7353 6.27502 12.6923 5.40787 12.4385C4.5408 12.1846 3.74675 11.7265 3.09244 11.1035C2.43824 10.4805 1.94215 9.70996 1.64615 8.85645C1.35025 8.00287 1.26314 7.09056 1.39127 6.19629C1.51948 5.30185 1.85956 4.45008 2.38346 3.71387C2.90732 2.97788 3.60011 2.37799 4.40299 1.96387C5.20594 1.54977 6.09623 1.33311 6.99967 1.33301ZM12.6667 0.666992C12.7912 0.667069 12.9135 0.701689 13.0192 0.767578C13.1249 0.833536 13.2104 0.928143 13.2653 1.04004L13.2975 1.11816L13.3835 1.37012C13.4749 1.63809 13.6227 1.88403 13.8161 2.09082C14.0095 2.29754 14.2452 2.46125 14.5065 2.57031L14.6296 2.61621L14.8815 2.70215C15.0063 2.74472 15.1159 2.824 15.196 2.92871C15.276 3.03341 15.3233 3.15948 15.3317 3.29102C15.3401 3.4226 15.3089 3.55388 15.2428 3.66797C15.1767 3.78192 15.0789 3.87453 14.9606 3.93262L14.8815 3.96387L14.6296 4.05078C14.3615 4.14225 14.1157 4.28991 13.9088 4.4834C13.7023 4.67673 13.5394 4.91179 13.4303 5.17285L13.3835 5.29688L13.2975 5.54883C13.2549 5.67344 13.1756 5.78231 13.071 5.8623C12.9662 5.94231 12.8402 5.98966 12.7087 5.99805C12.5771 6.0064 12.4457 5.97534 12.3317 5.90918C12.2179 5.84309 12.1261 5.74508 12.068 5.62695L12.0358 5.54883L11.9489 5.29688C11.8574 5.02875 11.7098 4.78305 11.5163 4.57617C11.3229 4.36949 11.088 4.20576 10.8268 4.09668L10.7038 4.0498L10.4518 3.96387C10.3272 3.92135 10.2174 3.84281 10.1374 3.73828C10.0573 3.63364 10.0091 3.50744 10.0006 3.37598C9.99223 3.24447 10.0235 3.11306 10.0895 2.99902C10.1556 2.88496 10.2544 2.7925 10.3727 2.73438L10.4518 2.70215L10.7038 2.61621C10.9716 2.52475 11.2168 2.37693 11.4235 2.18359C11.6303 1.99008 11.7939 1.75456 11.903 1.49316L11.9499 1.37012L12.0358 1.11816C12.0807 0.986654 12.1659 0.871898 12.279 0.791016C12.392 0.710236 12.5278 0.667083 12.6667 0.666992ZM12.6667 2.79785C12.509 2.99614 12.3288 3.17537 12.1305 3.33301C12.3291 3.49029 12.5087 3.67056 12.6667 3.86914C12.8239 3.67057 13.0042 3.49028 13.2028 3.33301C13.0045 3.17541 12.8243 2.99609 12.6667 2.79785Z" fill="#040404" fill-opacity="0.53"/>
</g>
</svg>
